<?xml version="1.0" standalone="no"?><!DOCTYPE svg PUBLIC "-//W3C//DTD SVG 1.1//EN" "http://www.w3.org/Graphics/SVG/1.1/DTD/svg11.dtd"><svg t="1516955560382" class="icon" style="" viewBox="0 0 1024 1024" version="1.1" xmlns="http://www.w3.org/2000/svg" p-id="1056" xmlns:xlink="http://www.w3.org/1999/xlink" width="200" height="200"><defs><style type="text/css"></style></defs><path d="M393.846154 104.999385c108.544 0 196.923077 88.772923 196.923077 197.868307s-88.379077 197.868308-196.923077 197.868308-196.923077-88.772923-196.923077-197.868308 88.379077-197.868308 196.923077-197.868307m0-78.769231c-152.260923 0-275.692308 123.825231-275.692308 276.637538s123.431385 276.637538 275.692308 276.637539 275.692308-123.825231 275.692308-276.637539S546.107077 26.230154 393.846154 26.230154z" fill="#ffffff" p-id="1057"></path><path d="M748.307692 1010.845538a39.384615 39.384615 0 0 1-39.384615-39.384615v-74.279385c0-174.473846-141.312-316.337231-315.076923-316.33723s-315.076923 141.863385-315.076923 316.33723v74.279385a39.384615 39.384615 0 0 1-78.769231 0v-74.279385c0-217.875692 176.679385-395.106462 393.846154-395.106461s393.846154 177.230769 393.846154 395.106461v74.279385a39.384615 39.384615 0 0 1-39.384616 39.384615zM776.349538 552.881231a39.384615 39.384615 0 0 1-6.774153-78.217846 119.020308 119.020308 0 0 0 47.261538-214.252308 117.681231 117.681231 0 0 0-88.221538-19.692308 39.384615 39.384615 0 0 1-13.784616-77.430154 194.875077 194.875077 0 0 1 147.219693 32.768 197.789538 197.789538 0 0 1-78.848 356.273231 50.254769 50.254769 0 0 1-6.852924 0.551385z" fill="#ffffff" p-id="1058"></path><path d="M985.403077 876.465231a39.384615 39.384615 0 0 1-39.384615-39.384616v-56.004923a228.115692 228.115692 0 0 0-227.40677-228.27323 39.384615 39.384615 0 1 1 0-78.769231 306.963692 306.963692 0 0 1 306.176 307.042461v56.004923a39.384615 39.384615 0 0 1-39.384615 39.384616z" fill="#ffffff" p-id="1059"></path></svg>